<svg xmlns="http://www.w3.org/2000/svg" data-name="Layer 1 copy 2" viewBox="0 0 64 80" x="0px" y="0px"><defs><style>.cls-1{fill:none;stroke:#CF6067;stroke-linejoin:round;stroke-width:2px;}</style></defs><title>Beauty-cosmetics-nail-polisha</title><polyline class="cls-1" points="2 20 10 20 34 20 58 32 53 37 34 28.192 17 28"/><polyline class="cls-1" points="48 27 47 31 55 35"/><polyline class="cls-1" points="25 28 40 39 39 57 32 54 32 42 22 36 12 36 26 44 25 56 14 56"/><polyline class="cls-1" points="6 45 15 48 14 62 2 62"/><line class="cls-1" x1="18" y1="49" x2="15" y2="49"/><line class="cls-1" x1="2" y1="54" x2="7" y2="54"/><polyline class="cls-1" points="39 46 35 46 35 55"/><rect class="cls-1" x="50" y="3" width="6" height="9"/><line class="cls-1" x1="53" y1="12" x2="53" y2="16"/><rect class="cls-1" x="51" y="16" width="4" height="10" rx="2" ry="2"/></svg>